
        <svg xmlns="http://www.w3.org/2000/svg" xmlns:xlink="http://www.w3.org/1999/xlink" version="1.1" width="3176.668951417014" height="510.9163171737516" viewBox="0 0 3176.668951417014 510.9163171737516">
			
			<g transform="scale(8.833447570850694) translate(10, 10)">
				<defs id="SvgjsDefs1083"/><g id="SvgjsG1084" featureKey="symbolFeature-0" transform="matrix(0.6386948936079055,0,0,0.6386948936079055,11.52913574474466,-13.01533079868814)" fill="#000"><g xmlns="http://www.w3.org/2000/svg"><path d="M62.877,75.633c-4.539-2.66-8.139-6.259-10.798-10.798c-2.66-4.539-3.99-9.484-3.99-14.835   c0-4.683-1.154-8.998-3.464-12.948c-2.31-3.949-5.438-7.078-9.388-9.388c-3.95-2.31-8.266-3.465-12.948-3.465H7v-3.821h15.289   c5.352,0,10.296,1.33,14.835,3.989s8.139,6.259,10.798,10.798c2.659,4.538,3.989,9.483,3.989,14.835   c0,4.682,1.154,8.998,3.464,12.947s5.438,7.079,9.389,9.389c3.949,2.309,8.266,3.464,12.948,3.464H93v3.822H77.712   C72.36,79.622,67.415,78.292,62.877,75.633z M7,75.8h15.289c4.459,0,8.576-1.092,12.351-3.272c3.774-2.183,6.744-5.105,8.911-8.768   l2.866,2.389c-2.484,4.109-5.861,7.382-10.129,9.818c-4.269,2.437-8.935,3.655-13.999,3.655H7V75.8z M20.378,33.755H24.2v32.489   h-3.822V33.755z M53.584,33.851c2.484-4.108,5.86-7.382,10.129-9.818c4.268-2.437,8.935-3.654,13.999-3.654H93v3.821H77.712   c-4.46,0-8.576,1.092-12.351,3.273s-6.745,5.104-8.911,8.767L53.584,33.851z M75.801,33.755h3.822v32.489h-3.822V33.755z"/></g><g xmlns="http://www.w3.org/2000/svg" display="none"><rect x="7" y="7" display="inline" stroke="#0f51b8" stroke-width="0.25" stroke-miterlimit="10" width="86" height="86"/></g></g><g id="SvgjsG1085" featureKey="nameLeftFeature-0" transform="matrix(1.7810967483793372,0,0,1.7810967483793372,73.93134212083102,-3.264284428212493)" fill="#000"><path d="M13.3 7.279999999999999 l-5.26 0 l0 12.72 l-2.12 0 l0 -12.72 l-5.32 0 l0 -2.2 l12.7 0 l0 2.2 z M20.76 6.66 l-0.82 -1.84 l2.4 0 l7.18 15.18 l-2.44 0 l-0.98 -2.18 l-4.54 0 q-1.28 0 -2.3 0.24 q-0.9 0.22 -1.5 0.58 q-0.54 0.32 -0.72 0.66 l-0.38 0.7 l-2.36 0 z M22.36 15.620000000000001 l2.76 0 l-3.26 -6.3 l-3.3 7.14 q0.44 -0.38 1.34 -0.6 q1.02 -0.24 2.46 -0.24 z M45.099999999999994 7 l-1.4 1.64 q-0.82 -0.84 -1.96 -1.32 t-2.4 -0.48 q-1.64 0 -2.99 0.74 t-2.11 2.02 q-0.78 1.34 -0.78 2.98 q0 1.56 0.84 2.88 q0.8 1.24 2.15 1.97 t2.91 0.73 q1.44 0 2.68 -0.62 t2.06 -1.72 l1.34 1.82 q-1.14 1.28 -2.73 1.99 t-3.37 0.71 q-2.22 0 -4.08 -1.08 q-1.82 -1.04 -2.86 -2.86 q-1.08 -1.86 -1.08 -4.08 q0 -2.14 1.14 -3.94 q1.08 -1.72 2.93 -2.73 t3.97 -1.01 q1.66 0 3.16 0.64 q1.46 0.6 2.58 1.72 z M59.739999999999995 7.279999999999999 l-5.26 0 l0 12.72 l-2.12 0 l0 -12.72 l-5.32 0 l0 -2.2 l12.7 0 l0 2.2 z M69.03999999999999 20.34 q-2.1 0 -3.61 -0.73 t-2.3 -2.11 t-0.79 -3.3 l0 -9.12 l2.16 0 l0 9.12 q0 1.92 1.18 2.94 t3.36 1.02 t3.36 -1.02 t1.18 -2.94 l0 -9.12 l2.16 0 l0 9.12 q0 1.92 -0.79 3.3 t-2.3 2.11 t-3.61 0.73 z M91.53999999999999 15.46 q0 1.46 -0.88 2.6 q-0.86 1.08 -2.37 1.68 t-3.41 0.6 q-1.74 0 -3.38 -0.81 t-2.76 -2.25 l1.56 -1.46 q1.94 2.34 4.58 2.34 q1.16 0 2.12 -0.28 q1.06 -0.32 1.64 -0.9 q0.66 -0.64 0.66 -1.52 q0 -1.06 -0.66 -1.6 q-0.56 -0.46 -1.66 -0.6 q-0.64 -0.08 -2.1 -0.08 q-2.68 0 -4.09 -0.98 t-1.41 -2.88 q0 -1.2 0.71 -2.28 t1.95 -1.72 q1.28 -0.68 2.84 -0.68 q1.76 0 3.18 0.54 q1.52 0.58 2.82 1.82 l-1.36 1.6 q-1.22 -0.98 -2.22 -1.37 t-2.42 -0.39 q-0.82 0 -1.53 0.34 t-1.13 0.91 t-0.42 1.21 q0 1.72 3.18 1.72 q2.54 0 4.02 0.52 q1.4 0.5 2 1.52 q0.54 0.9 0.54 2.4 z"/></g><g id="SvgjsG1086" featureKey="nameRightFeature-0" transform="matrix(1.9973731218283588,0,0,1.9973731218283588,243.20105246562775,-6.984238730970153)" fill="#000"><path d="M12.62 6 l0.62 0 l-6.28 14 l-0.3 0 l-6.26 -14 l0.62 0 l5.8 13 z M18.744000000000003 6 l0 14 l-0.58 0 l0 -14 l0.58 0 z M33.108000000000004 6 l0 0.58 l-4.22 0 l0 13.42 l-0.58 0 l0 -13.42 l-4.24 0 l0 -0.58 l9.04 0 z M47.651999999999994 20 l-1.78 -3.98 l-8.04 0 l-1.78 3.98 l-0.62 0 l6.26 -14 l0.3 0 l6.28 14 l-0.62 0 z M38.071999999999996 15.46 l7.56 0 l-3.78 -8.46 z"/></g>
			</g>
		</svg>
	