<?xml version="1.0" encoding="utf-8"?>
<!-- Uploaded to: SVG Repo, www.svgrepo.com, Generator: SVG Repo Mixer Tools -->
<svg width="800px" height="800px" viewBox="0 -40.83 272.075 272.075" xmlns="http://www.w3.org/2000/svg"><defs><style>.a{fill:#ffffff;}.b{fill:#cfcfcf;}.c{fill:#ffda71;}.d{fill:#211715;}</style></defs><path class="a" d="M32.384,102.987c-.012-28.959-.027-67.343-.036-91.845a8.675,8.675,0,0,1,8.678-8.679c37.39-.011,145.732-.048,190.065-.064a8.679,8.679,0,0,1,8.685,8.681c0,32.869.014,86.255.027,120.266C246.668,141,261.4,161.3,268.6,173.6a7.948,7.948,0,0,1,1.086,4.031c0,1.255-.026,2.774-.026,4.343a6.027,6.027,0,0,1-6.026,6.019H7.52a5.024,5.024,0,0,1-5.026-5.023c0-7.751-.029,2.275-.029-5.329a8,8,0,0,1,1.09-4.047c7.281-12.434,22.071-33.379,28.84-42.882C32.392,123.7,32.388,114.03,32.384,102.987Z"/><path class="b" d="M225.558,137.234a5.247,5.247,0,0,1,4.307,2.25c3.266,4.664,6.779,9.821,9.9,14.847a2.529,2.529,0,0,1-2.141,3.87H34.53a2.526,2.526,0,0,1-2.156-3.849c3.129-5.039,6.652-10.21,9.926-14.889a5.236,5.236,0,0,1,4.3-2.234c37.475,0,141.488,0,178.963,0"/><path class="a" d="M46.076,15.145c.012,29.893.047,109.886.047,109.886,30.4-.012,150.455-.053,179.953-.061-.013-32.328-.034-82.735-.046-109.883C226.03,15.087,72.611,15.139,46.076,15.145Z"/><path class="c" d="M108.02,60.755c0,10.155-.007,21.759-.01,31.969a8.41,8.41,0,0,0,8.412,8.416c11.448,0,27.444.014,39.3.018a8.408,8.408,0,0,0,8.416-8.413c0-10.207,0-21.81.01-31.966a8.409,8.409,0,0,0-8.41-8.417l-39.3-.017A8.409,8.409,0,0,0,108.02,60.755Z"/><path class="d" d="M34.784,102.987l-.021-52.995q0-12.775-.01-25.55,0-5.613,0-11.227a11.034,11.034,0,0,1,.53-4.635A6.372,6.372,0,0,1,38.463,5.4C40.458,4.5,43,4.863,45.141,4.862l6.692,0,15.891,0,38.932-.013,43.7-.015L192.5,4.813,226.877,4.8c2.5,0,5.3-.407,7.533.944a6.173,6.173,0,0,1,2.64,3.328,15.036,15.036,0,0,1,.326,4.679q0,11.189,0,22.377,0,25.55.011,51.1,0,12.447.008,24.894,0,5.722,0,11.445,0,2.683,0,5.367c0,.8-.054,1.617,0,2.412a4.864,4.864,0,0,0,1.245,2.5c8.645,12.116,17.447,24.167,25.345,36.79.862,1.378,1.748,2.754,2.536,4.175,1.115,2.011.749,4.427.733,6.642a3.875,3.875,0,0,1-1.8,3.646,4.994,4.994,0,0,1-2.678.494H9.914c-1.2,0-2.773.25-3.816-.416-1.8-1.149-1.084-3.547-1.211-5.347-.179-2.548-4.1-3.438-4.714-.638a14.491,14.491,0,0,0-.1,1.494h4.8a11.588,11.588,0,0,1,.4-5.175,45.971,45.971,0,0,1,3.977-6.627c3.113-4.936,6.352-9.792,9.632-14.618q4.869-7.165,9.861-14.247,2.1-2.983,4.209-5.957a10.306,10.306,0,0,0,1.763-2.712c.377-1.367.085-3.208.084-4.613l-.009-23.75c0-3.089-4.8-3.094-4.8,0q0,13.862.011,27.725l.328-1.212c-9.437,13.251-18.936,26.549-27.391,40.456C1.586,172.171.313,174.281.1,176.933a21.28,21.28,0,0,0-.028,3.753,2.4,2.4,0,0,0,4.8,0c.045-.393.2-1.447-.07-.218L.087,179.83c.056.789.007,1.6.007,2.388a8.164,8.164,0,0,0,1.948,5.754c1.9,2.114,4.442,2.421,7.1,2.421H260.683a18.477,18.477,0,0,0,5.359-.35,8.61,8.61,0,0,0,4.776-3.675c1.241-2,1.235-4.163,1.254-6.438.023-2.686-.057-5.131-1.4-7.541-.847-1.522-1.795-3-2.721-4.47-2.077-3.309-4.234-6.569-6.421-9.808-4.611-6.828-9.368-13.557-14.152-20.265q-2.751-3.856-5.5-7.711l.328,1.211q-.009-23.457-.016-46.913-.008-25.151-.01-50.3,0-10.947,0-21.894c0-3.809-1.06-7.328-4.149-9.782C235.206.216,232.077,0,228.627,0l-33.2.012L154.2.026,110.92.041,71.55.054,41.961.063c-3.528,0-6.845,1.007-9.233,3.747-2.68,3.076-2.78,6.6-2.779,10.465L29.958,37.9l.021,52.972q0,6.059.005,12.117C29.985,106.075,34.785,106.081,34.784,102.987Z"/><path class="d" d="M43.676,15.145,43.7,65.509q.01,24.7.022,49.4,0,5.06,0,10.121a2.435,2.435,0,0,0,2.4,2.4l26.772-.01L112,127.408l43.5-.015,40.026-.014,28.238-.008h2.305a2.434,2.434,0,0,0,2.4-2.4l-.018-43.554q-.009-22.764-.019-45.53l-.009-20.8a2.435,2.435,0,0,0-2.4-2.4l-15.488.006-38.093.012-48.008.016-45.552.014q-15.348,0-30.7.009H46.076c-3.088,0-3.093,4.8,0,4.8l28.005-.008,44.529-.014,48.37-.016,39.867-.013,12.881,0c2,0,4.05.136,6.043,0,.086-.006.173,0,.259,0l-2.4-2.4q.009,19.931.017,39.859.011,23.281.02,46.563l.009,23.461,2.4-2.4-26.348.008-38.891.013-43.492.015-40.218.014-28.634.01h-2.37l2.4,2.4q-.015-14.5-.012-29l-.024-55.442q-.006-12.723-.011-25.447C48.475,12.056,43.675,12.051,43.676,15.145Z"/><path class="d" d="M122.511,52.984a13.731,13.731,0,0,1,27.141.02A2.418,2.418,0,0,0,152.6,54.68a2.457,2.457,0,0,0,1.677-2.952,18.2,18.2,0,0,0-12.046-14.187,19.022,19.022,0,0,0-19.38,4.4,18.32,18.32,0,0,0-4.973,9.772,2.471,2.471,0,0,0,1.676,2.952,2.419,2.419,0,0,0,2.953-1.676Z"/><path class="d" d="M105.62,60.755q0,11.7-.007,23.4,0,2.955,0,5.911a23.245,23.245,0,0,0,.292,5.152,10.808,10.808,0,0,0,5.44,7.051c3,1.555,6.3,1.268,9.568,1.269l10.49,0q10.734.006,21.467.01c3.2,0,6.313.012,9.032-1.948a11.017,11.017,0,0,0,4.588-8c.173-1.824.045-3.706.045-5.538q0-2.868,0-5.735,0-5.934,0-11.868l0-5.926a36.271,36.271,0,0,0-.169-5.595,10.827,10.827,0,0,0-5-7.392c-2.7-1.674-5.667-1.589-8.717-1.591l-9.439,0-20.4-.009c-2.972,0-6.313-.408-9.21.37a10.848,10.848,0,0,0-6.872,5.652,11.427,11.427,0,0,0-1.123,4.786c-.064,3.09,4.737,3.09,4.8,0a6.082,6.082,0,0,1,3.36-5.4c2.119-1.049,4.895-.608,7.188-.607l18.253.007,8.99,0a74.972,74.972,0,0,1,8.212.032,6.1,6.1,0,0,1,4.855,3.625,7.913,7.913,0,0,1,.464,3.238q0,2.685,0,5.371-.006,10.633-.007,21.269c0,2.73.539,5.912-1.3,8.212-1.507,1.889-3.571,2.254-5.844,2.253-12.715,0-25.46.25-38.172-.018a6.1,6.1,0,0,1-5.559-3.682,11.456,11.456,0,0,1-.452-4.542q0-2.948,0-5.9,0-11.933.007-23.865C110.421,57.667,105.621,57.662,105.62,60.755Z"/><path class="d" d="M143.594,71.821a7.518,7.518,0,0,0-15.035,0c0,3.025,1.227,5.324,3.346,6.569a1.084,1.084,0,0,1,.524.937c0,1.415,0,2.21,0,6.228a3.6,3.6,0,0,0,3.582,3.6h.113a3.6,3.6,0,0,0,3.6-3.595c0-3.989,0-4.813,0-6.207a1.081,1.081,0,0,1,.53-.938C142.4,77.174,143.594,74.866,143.594,71.821Z"/><path class="d" d="M227.793,140.7c2.053,2.935,4.083,5.886,6.06,8.873q1.441,2.178,2.842,4.384c.261.412.939,1.252,1.052,1.548.078.2.015.3-.141.335-.064.016-.6-.034-.775-.034h-201c-.409,0-.916.005-1.287.009-.015,0-.173-.276-.142,0-.045-.393.522-1,.8-1.447,1.955-3.1,3.987-6.156,6.056-9.183q1.444-2.113,2.912-4.21c.222-.318.587-1.148.936-1.32a2.807,2.807,0,0,1,.974-.019H80.589l62.468,0H214.2c3.089,0,3.094-4.8,0-4.8H91.981l-27.721,0H47.991c-2.212,0-4.662-.285-6.342,1.489a34,34,0,0,0-2.941,4.116q-1.617,2.334-3.2,4.687-1.473,2.19-2.91,4.405c-.951,1.469-2.311,3.057-2.8,4.762a5,5,0,0,0,4.752,6.313c1.483.056,2.979,0,4.463,0H235.36c.647,0,1.294.008,1.941,0a5.03,5.03,0,0,0,5.249-4.806c.017-1.65-.86-2.923-1.71-4.266q-1.4-2.207-2.842-4.384c-1.977-2.987-4.007-5.938-6.061-8.873a2.464,2.464,0,0,0-3.283-.861,2.421,2.421,0,0,0-.861,3.284Z"/><path class="d" d="M248.857,171.864H31.077c-2.947,0-5.9-.059-8.847,0-.127,0-.254,0-.381,0-3.089,0-3.094,4.8,0,4.8h217.78c2.946,0,5.9.059,8.846,0,.127,0,.255,0,.382,0,3.088,0,3.093-4.8,0-4.8Z"/></svg>